<svg width="18" height="18" viewBox="0 0 18 18" fill="none" xmlns="http://www.w3.org/2000/svg">
<path fill-rule="evenodd" clip-rule="evenodd" d="M17.25 11.2957V14.25C17.25 15.9069 15.9069 17.25 14.25 17.25H3.75C2.09315 17.25 0.75 15.9069 0.75 14.25V3.75C0.75 2.09315 2.09315 0.75 3.75 0.75H14.25C15.9069 0.75 17.25 2.09315 17.25 3.75V11.2043C17.2518 11.2347 17.2518 11.2653 17.25 11.2957V11.2957ZM15.75 11.5594L12.7501 8.56056L9.91508 11.3956L13.834 15.75H14.25C15.0785 15.75 15.75 15.0784 15.75 14.25V11.5594ZM15.75 9.43843V3.75C15.75 2.92158 15.0784 2.25 14.25 2.25H3.74999C2.92156 2.25 2.24999 2.92158 2.24999 3.75V12.4393L6.21966 8.46967C6.52351 8.16583 7.02001 8.17889 7.30746 8.49828L8.91022 10.2791L12.2197 6.96967C12.5125 6.67682 12.9873 6.67677 13.2802 6.96958L15.75 9.43843ZM11.816 15.75L6.72137 10.0893L2.27683 14.5338C2.4095 15.2266 3.01863 15.75 3.75001 15.75H11.816ZM6.37499 6.75C5.33946 6.75 4.49999 5.91053 4.49999 4.875C4.49999 3.83947 5.33946 3 6.37499 3C7.41053 3 8.24999 3.83947 8.24999 4.875C8.24999 5.91053 7.41053 6.75 6.37499 6.75ZM6.37501 5.25C6.58212 5.25 6.75001 5.08211 6.75001 4.875C6.75001 4.6679 6.58212 4.5 6.37501 4.5C6.1679 4.5 6.00001 4.6679 6.00001 4.875C6.00001 5.08211 6.1679 5.25 6.37501 5.25Z" fill="#BDBDBD"/>
</svg>
